<svg version="1.1" xmlns="http://www.w3.org/2000/svg" xmlns:xlink="http://www.w3.org/1999/xlink" width="453.46739" height="442.77479" viewBox="0,0,453.46739,442.77479"><g transform="translate(-14.09422,18.40582)"><g data-paper-data="{&quot;isPaintingLayer&quot;:true}" fill-rule="nonzero" stroke="none" stroke-width="0" stroke-linecap="butt" stroke-linejoin="miter" stroke-miterlimit="10" stroke-dasharray="" stroke-dashoffset="0" style="mix-blend-mode: normal"><path d="" fill="#ff0000"/><path d="" fill="#ff0000"/><path d="" fill="#ff0000"/><path d="" fill="#ff0000"/><path d="" fill="#ff0000"/><path d="" fill="#ff0000"/><path d="" fill="#ff0000"/><path d="" fill="#ff0000"/><path d="" fill="#ff0000"/><path d="" fill="#ff0000"/><path d="" fill="#ff0000"/><path d="" fill="#ff0000"/><path d="" fill="#ff0000"/><path d="" fill="#ff0000"/><path d="" fill="#ff0000"/><path d="" fill="#ff0000"/><path d="" fill="#ff0000"/><path d="" fill="#ff0000"/><path d="" fill="#ff0000"/><path d="" fill="#ff0000"/><path d="" fill="#ff0000"/><path d="" fill="#ff0000"/><path d="" fill="#ff0000"/><path d="" fill="#ff0000"/><path d="" fill="#ff0000"/><path d="" fill="#ff0000"/><path d="" fill="#ff0000"/><path d="M203.57994,424.36897v-0.09359c0.93962,-0.00089 1.87924,-0.00178 2.81886,-0.00266v0.09625z" fill="#ffffff"/><path d="" fill="#ff0000"/><path d="" fill="#ff0000"/><path d="" fill="#ff0000"/><path d="" fill="#ff0000"/><path d="" fill="#ff0000"/><path d="" fill="#ff0000"/><path d="" fill="#ff0000"/><path d="" fill="#ff0000"/><path d="" fill="#ff0000"/><path d="" fill="#ff0000"/><path d="" fill="#ff0000"/><path d="" fill="#ff0000"/><path d="" fill="#ff0000"/><path d="" fill="#ff0000"/><path d="" fill="#ff0000"/><path d="" fill="#ff0000"/><path d="" fill="#ff0000"/><path d="" fill="#ff0000"/><path d="" fill="#ff0000"/><path d="" fill="#ff0000"/><path d="" data-paper-data="{&quot;index&quot;:null}" fill="#ff0000"/><path d="" fill="#ff0000"/><path d="" fill="#ff0000"/><path d="" fill="#ff0000"/><path d="" fill="#ff0000"/><path d="" fill="#ff0000"/><path d="" fill="#ff0000"/><path d="" fill="#ff0000"/><path d="" fill="#ff0000"/><path d="" fill="#ff0000"/><path d="" fill="#ff0000"/><path d="" fill="#ff0000"/><path d="" fill="#ff0000"/><path d="" fill="#ff0000"/><path d="" fill="#ff0000"/><path d="" fill="#ff0000"/><path d="" fill="#ff0000"/><path d="" fill="#ff0000"/><path d="" fill="#ff0000"/><path d="" fill="#ff0000"/><path d="" fill="#ff0000"/><path d="" fill="#ff0000"/><path d="" fill="#ff0000"/><path d="" fill="#ff0000"/><path d="" fill="#ff0000"/><path d="" fill="#ff0000"/><path d="" fill="#ff0000"/><path d="" fill="#ff0000"/><path d="" fill="#ffffff"/><path d="" fill="#ffffff"/><path d="" fill="#ff0000"/><path d="" fill="#ff0000"/><path d="" fill="#ff0000"/><path d="" fill="#ff0000"/><path d="" fill="#ff0000"/><path d="" fill="#ff0000"/><path d="" fill="#ff0000"/><path d="" fill="#ff0000"/><path d="" fill="#ff0000"/><path d="" data-paper-data="{&quot;index&quot;:null}" fill="#ff0000"/><path d="M14.69574,46.48433v-2.4566h1.28986v2.4566z" fill="#ffffff"/><path d="M40.94387,66.31621v-2.4566h1.28986v2.4566z" fill="#ffffff"/><path d="M80.43069,185.72277v2.4566h-1.28986v-2.4566z" data-paper-data="{&quot;index&quot;:null}" fill="#ffffff"/><path d="M14.09422,106.97519v-2.4566h1.28986v2.4566z" fill="#ffffff"/><path d="M87.76556,136.66923v2.4566h-1.28986v-2.4566z" data-paper-data="{&quot;index&quot;:null}" fill="#ffffff"/><path d="M136.69748,180.57181v2.4566h-1.28986v-2.4566z" data-paper-data="{&quot;index&quot;:null}" fill="#ffffff"/><path d="M186.2688,195.59418v2.4566h-1.28986v-2.4566z" data-paper-data="{&quot;index&quot;:null}" fill="#ffffff"/><path d="M211.62612,192.47328v2.4566h-1.28986v-2.4566z" data-paper-data="{&quot;index&quot;:null}" fill="#ffffff"/><path d="" data-paper-data="{&quot;index&quot;:null}" fill="#ff0000"/><path d="M52.64002,144.53682h-0.21751c0.07251,-0.16147 0.14492,-0.323 0.21751,-0.48443z" fill="#ffffff"/><path d="M85.18846,96.54172v2.4566h-1.28986v-2.4566z" data-paper-data="{&quot;index&quot;:null}" fill="#ffffff"/><path d="M19.78566,168.20796v-2.4566h1.28986v2.4566z" fill="#ffffff"/><path d="M161.26054,116.3808v2.4566h-1.28986v-2.4566z" data-paper-data="{&quot;index&quot;:null}" fill="#ffffff"/><path d="" data-paper-data="{&quot;index&quot;:null}" fill="#ff0000"/><path d="M184.06019,94.64272v2.4566h-1.28986v-2.4566z" data-paper-data="{&quot;index&quot;:null}" fill="#ffffff"/><path d="M121.60788,88.31006v2.4566h-1.28986v-2.4566z" data-paper-data="{&quot;index&quot;:null}" fill="#ffffff"/><path d="M215.39924,90.87163v2.4566h-1.28986v-2.4566z" data-paper-data="{&quot;index&quot;:null}" fill="#ffffff"/><path d="M118.54291,223.14905v2.4566h-1.28985v-2.4566z" data-paper-data="{&quot;index&quot;:null}" fill="#ffffff"/><path d="M23.36541,2.90749v-2.4566h1.28986v2.4566z" fill="#ffffff"/><path d="M57.31229,229.59113v2.4566h-1.28986v-2.4566z" data-paper-data="{&quot;index&quot;:null}" fill="#ffffff"/><path d="" data-paper-data="{&quot;index&quot;:null}" fill="#ff0000"/><path d="M132.93316,251.46202v2.4566h-1.28986v-2.4566z" data-paper-data="{&quot;index&quot;:null}" fill="#ffffff"/><path d="" data-paper-data="{&quot;index&quot;:null}" fill="#ff0000"/><path d="" data-paper-data="{&quot;index&quot;:null}" fill="#ff0000"/><path d="" data-paper-data="{&quot;index&quot;:null}" fill="#ff0000"/><path d="" data-paper-data="{&quot;index&quot;:null}" fill="#ff0000"/><path d="" data-paper-data="{&quot;index&quot;:null}" fill="#ff0000"/><path d="" data-paper-data="{&quot;index&quot;:null}" fill="#ff0000"/><path d="M256.9856,203.29013v2.4566h-1.28986v-2.4566z" data-paper-data="{&quot;index&quot;:null}" fill="#ffffff"/><path d="M283.23374,183.45826v2.45659h-1.28986v-2.45659z" data-paper-data="{&quot;index&quot;:null}" fill="#ffffff"/><path d="M324.14083,52.05169v-2.4566h1.28986v2.4566z" fill="#ffffff"/><path d="M256.38408,142.79927v2.4566h-1.28986v-2.4566z" data-paper-data="{&quot;index&quot;:null}" fill="#ffffff"/><path d="M331.47571,101.10523v-2.4566h1.28985v2.4566z" fill="#ffffff"/><path d="M380.40762,57.20265v-2.45659h1.28986v2.45659z" fill="#ffffff"/><path d="" fill="#ff0000"/><path d="M455.33627,45.30118v-2.4566h1.28986v2.4566z" fill="#ffffff"/><path d="M393.76974,90.12007v-2.4566h1.28985v2.4566z" fill="#ffffff"/><path d="" data-paper-data="{&quot;index&quot;:null}" fill="#ff0000"/><path d="" fill="#ff0000"/><path d="M262.07552,81.5665v2.4566h-1.28986v-2.4566z" data-paper-data="{&quot;index&quot;:null}" fill="#ffffff"/><path d="" fill="#ff0000"/><path d="" fill="#ff0000"/><path d="M427.77033,143.13174v-2.4566h1.28985v2.4566z" fill="#ffffff"/><path d="M365.31803,149.46441v-2.45659h1.28986v2.45659z" fill="#ffffff"/><path d="M459.10938,146.90283v-2.45659h1.28986v2.45659z" fill="#ffffff"/><path d="M362.25306,14.62542v-2.4566h1.28985v2.4566z" fill="#ffffff"/><path d="M265.65527,246.86698v2.45659h-1.28986v-2.45659z" data-paper-data="{&quot;index&quot;:null}" fill="#ffffff"/><path d="" data-paper-data="{&quot;index&quot;:null}" fill="#ff0000"/><path d="M333.27175,-14.96335v-2.45659h1.28986v2.4566z" fill="#ffffff"/><path d="M376.6433,-13.68756v-2.4566h1.28987v2.4566z" fill="#ffffff"/><path d="" fill="#ff0000"/><path d="M448.12544,-15.94923v-2.45659h1.28985v2.45659z" fill="#ffffff"/><path d="" data-paper-data="{&quot;index&quot;:null}" fill="#ff0000"/><path d="" fill="#ff0000"/><path d="M81.2688,-18.40582v2.4566h-1.28985v-2.4566z" data-paper-data="{&quot;index&quot;:null}" fill="#ffffff"/><path d="" fill="#ff0000"/><path d="M45.76974,310.12007v-2.4566h1.28985v2.4566z" fill="#ffffff"/><path d="M56.97068,341.39366v-2.4566h1.28986v2.4566z" fill="#ffffff"/><path d="" fill="#ff0000"/><path d="" fill="#ff0000"/><path d="M17.31803,369.46441v-2.45659h1.28986v2.45659z" fill="#ffffff"/><path d="M111.10938,366.90283v-2.45659h1.28986v2.45659z" fill="#ffffff"/><path d="M14.25306,234.62542v-2.4566h1.28985v2.4566z" fill="#ffffff"/><path d="M28.6433,206.31244v-2.4566h1.28986v2.4566z" fill="#ffffff"/><path d="M85.42891,27.79832v2.45659h-1.28985v-2.45659z" data-paper-data="{&quot;index&quot;:null}" fill="#ffffff"/><path d="" data-paper-data="{&quot;index&quot;:null}" fill="#ff0000"/><path d="M151.9856,-10.70987v2.4566h-1.28986v-2.4566z" data-paper-data="{&quot;index&quot;:null}" fill="#ffffff"/><path d="M178.94387,274.31621v-2.45659h1.28986v2.45659z" fill="#ffffff"/><path d="" fill="#ff0000"/><path d="M152.09422,314.97519v-2.4566h1.28986v2.4566z" fill="#ffffff"/><path d="M226.47571,315.10523v-2.4566h1.28985v2.4566z" fill="#ffffff"/><path d="" fill="#ff0000"/><path d="" fill="#ff0000"/><path d="M157.78566,376.20796v-2.4566h1.28986v2.4566z" fill="#ffffff"/><path d="" data-paper-data="{&quot;index&quot;:null}" fill="#ff0000"/><path d="M195.31229,21.59113v2.4566h-1.28986v-2.4566z" data-paper-data="{&quot;index&quot;:null}" fill="#ffffff"/><path d="M227.56161,44.73782v2.45659h-1.28986v-2.45659z" data-paper-data="{&quot;index&quot;:null}" fill="#ffffff"/><path d="M212.41242,371.11198v2.4566h-1.28985v-2.4566z" data-paper-data="{&quot;index&quot;:null}" fill="#ffffff"/><path d="M278.23374,66.45826v2.45659h-1.28986v-2.45659z" data-paper-data="{&quot;index&quot;:null}" fill="#ffffff"/><path d="M251.38408,25.79927v2.4566h-1.28986v-2.4566z" data-paper-data="{&quot;index&quot;:null}" fill="#ffffff"/><path d="" fill="#ff0000"/><path d="M388.76974,207.12007v-2.4566h1.28985v2.4566z" fill="#ffffff"/><path d="M288.64003,-11.27793c-0.07259,-0.16143 -0.145,-0.32295 -0.21751,-0.48442h0.21751z" data-paper-data="{&quot;index&quot;:null}" fill="#ffffff"/><path d="M323.8986,258.23274v-2.4566h1.28986v2.4566z" fill="#ffffff"/><path d="M257.78566,279.20796v-2.4566h1.28986v2.4566z" fill="#ffffff"/><path d="M399.97068,238.39366v-2.4566h1.28986v2.4566z" fill="#ffffff"/><path d="M450.3383,239.58581v-2.45659h1.28985v2.45659z" fill="#ffffff"/><path d="" fill="#ff0000"/><path d="M360.31803,266.46441v-2.45659h1.28986v2.45659z" fill="#ffffff"/><path d="M454.10938,263.90283v-2.45659h1.28986v2.45659z" fill="#ffffff"/><path d="M312.41242,274.11198v2.4566h-1.28985v-2.4566z" data-paper-data="{&quot;index&quot;:null}" fill="#ffffff"/><path d="M270.40762,388.20266v-2.45659h1.28986v2.45659z" fill="#ffffff"/><path d="" fill="#ff0000"/><path d="" fill="#ff0000"/><path d="" fill="#ff0000"/><path d="M266.64329,317.31244v-2.4566h1.28987v2.4566z" fill="#ffffff"/><path d="" fill="#ff0000"/><path d="" fill="#ff0000"/><path d="M390.69574,365.48434v-2.4566h1.28986v2.4566z" fill="#ffffff"/><path d="M416.94388,385.31621v-2.4566h1.28986v2.4566z" fill="#ffffff"/><path d="M457.14083,377.05169v-2.45659h1.28986v2.45659z" fill="#ffffff"/><path d="" fill="#ff0000"/><path d="M434.02243,333.18333v-2.4566h1.28986v2.4566z" fill="#ffffff"/><path d="M466.27175,310.03665v-2.4566h1.28986v2.4566z" fill="#ffffff"/></g></g></svg>